<mxfile host="app.diagrams.net" modified="2023-07-17T08:22:00.798Z" agent="Mozilla/5.0 (Macintosh; Intel Mac OS X 10_15_7) AppleWebKit/537.36 (KHTML, like Gecko) Chrome/114.0.0.0 Safari/537.36" etag="etxGcJxguyECqs2Aqn6d" version="21.5.0" type="github">
  <diagram name="Page-1" id="5f0bae14-7c28-e335-631c-24af17079c00">
    <mxGraphModel dx="984" dy="708" grid="1" gridSize="10" guides="1" tooltips="1" connect="1" arrows="1" fold="1" page="1" pageScale="1" pageWidth="1100" pageHeight="850" background="none" math="0" shadow="0">
      <root>
        <mxCell id="0" />
        <mxCell id="1" parent="0" />
        <mxCell id="-nI84mxvh85g4nLmvBqE-6" style="edgeStyle=orthogonalEdgeStyle;rounded=0;orthogonalLoop=1;jettySize=auto;html=1;exitX=0.5;exitY=0;exitDx=0;exitDy=0;" edge="1" parent="1" source="-nI84mxvh85g4nLmvBqE-1">
          <mxGeometry relative="1" as="geometry">
            <mxPoint x="190" y="160" as="targetPoint" />
          </mxGeometry>
        </mxCell>
        <mxCell id="-nI84mxvh85g4nLmvBqE-20" style="edgeStyle=orthogonalEdgeStyle;rounded=0;orthogonalLoop=1;jettySize=auto;html=1;" edge="1" parent="1" source="-nI84mxvh85g4nLmvBqE-1">
          <mxGeometry relative="1" as="geometry">
            <mxPoint x="190" y="400" as="targetPoint" />
          </mxGeometry>
        </mxCell>
        <mxCell id="-nI84mxvh85g4nLmvBqE-1" value="USSD (*544#)" style="rounded=0;whiteSpace=wrap;html=1;" vertex="1" parent="1">
          <mxGeometry x="130" y="210" width="120" height="60" as="geometry" />
        </mxCell>
        <mxCell id="-nI84mxvh85g4nLmvBqE-2" value="" style="endArrow=classic;html=1;rounded=0;exitX=1;exitY=0.5;exitDx=0;exitDy=0;" edge="1" parent="1" source="-nI84mxvh85g4nLmvBqE-1">
          <mxGeometry width="50" height="50" relative="1" as="geometry">
            <mxPoint x="480" y="390" as="sourcePoint" />
            <mxPoint x="400" y="240" as="targetPoint" />
          </mxGeometry>
        </mxCell>
        <mxCell id="-nI84mxvh85g4nLmvBqE-18" style="edgeStyle=orthogonalEdgeStyle;rounded=0;orthogonalLoop=1;jettySize=auto;html=1;" edge="1" parent="1" source="-nI84mxvh85g4nLmvBqE-4" target="-nI84mxvh85g4nLmvBqE-15">
          <mxGeometry relative="1" as="geometry" />
        </mxCell>
        <mxCell id="-nI84mxvh85g4nLmvBqE-4" value="Data&amp;amp;Minutes Packages&lt;br&gt;DB&lt;br&gt;" style="shape=datastore;whiteSpace=wrap;html=1;" vertex="1" parent="1">
          <mxGeometry x="820" y="180" width="90" height="140" as="geometry" />
        </mxCell>
        <mxCell id="-nI84mxvh85g4nLmvBqE-10" style="edgeStyle=orthogonalEdgeStyle;rounded=0;orthogonalLoop=1;jettySize=auto;html=1;entryX=-0.033;entryY=0.657;entryDx=0;entryDy=0;entryPerimeter=0;" edge="1" parent="1" source="-nI84mxvh85g4nLmvBqE-5" target="-nI84mxvh85g4nLmvBqE-4">
          <mxGeometry relative="1" as="geometry">
            <Array as="points">
              <mxPoint x="440" y="270" />
              <mxPoint x="645" y="270" />
              <mxPoint x="645" y="272" />
            </Array>
          </mxGeometry>
        </mxCell>
        <mxCell id="-nI84mxvh85g4nLmvBqE-5" value="API" style="text;html=1;strokeColor=none;fillColor=none;align=center;verticalAlign=middle;whiteSpace=wrap;rounded=0;" vertex="1" parent="1">
          <mxGeometry x="410" y="225" width="60" height="30" as="geometry" />
        </mxCell>
        <mxCell id="-nI84mxvh85g4nLmvBqE-14" style="edgeStyle=orthogonalEdgeStyle;rounded=0;orthogonalLoop=1;jettySize=auto;html=1;" edge="1" parent="1" source="-nI84mxvh85g4nLmvBqE-7" target="-nI84mxvh85g4nLmvBqE-15">
          <mxGeometry relative="1" as="geometry">
            <mxPoint x="290" y="145" as="targetPoint" />
          </mxGeometry>
        </mxCell>
        <mxCell id="-nI84mxvh85g4nLmvBqE-7" value="Filter solution&lt;br&gt;" style="text;html=1;strokeColor=none;fillColor=none;align=center;verticalAlign=middle;whiteSpace=wrap;rounded=0;" vertex="1" parent="1">
          <mxGeometry x="160" y="130" width="60" height="30" as="geometry" />
        </mxCell>
        <mxCell id="-nI84mxvh85g4nLmvBqE-11" value="Existing filter?&lt;br&gt;Minutes&lt;br&gt;Data&lt;br&gt;Specified amount&lt;br&gt;" style="text;html=1;strokeColor=none;fillColor=none;align=center;verticalAlign=middle;whiteSpace=wrap;rounded=0;" vertex="1" parent="1">
          <mxGeometry x="720" y="110" width="60" height="30" as="geometry" />
        </mxCell>
        <mxCell id="-nI84mxvh85g4nLmvBqE-12" value="Tunukiwa&lt;br&gt;All in one&lt;br&gt;DIY postpay&lt;br&gt;D, W, M&lt;br&gt;Calls and SMS&lt;br&gt;" style="text;html=1;strokeColor=none;fillColor=none;align=center;verticalAlign=middle;whiteSpace=wrap;rounded=0;" vertex="1" parent="1">
          <mxGeometry x="820" y="60" width="60" height="30" as="geometry" />
        </mxCell>
        <mxCell id="-nI84mxvh85g4nLmvBqE-13" style="edgeStyle=orthogonalEdgeStyle;rounded=0;orthogonalLoop=1;jettySize=auto;html=1;" edge="1" parent="1" source="-nI84mxvh85g4nLmvBqE-12" target="-nI84mxvh85g4nLmvBqE-12">
          <mxGeometry relative="1" as="geometry" />
        </mxCell>
        <mxCell id="-nI84mxvh85g4nLmvBqE-16" style="edgeStyle=orthogonalEdgeStyle;rounded=0;orthogonalLoop=1;jettySize=auto;html=1;" edge="1" parent="1" source="-nI84mxvh85g4nLmvBqE-15">
          <mxGeometry relative="1" as="geometry">
            <mxPoint x="850" y="130" as="targetPoint" />
            <Array as="points">
              <mxPoint x="850" y="170" />
            </Array>
          </mxGeometry>
        </mxCell>
        <mxCell id="-nI84mxvh85g4nLmvBqE-15" value="1000&lt;br&gt;" style="rounded=0;whiteSpace=wrap;html=1;" vertex="1" parent="1">
          <mxGeometry x="230" y="115" width="120" height="60" as="geometry" />
        </mxCell>
        <mxCell id="-nI84mxvh85g4nLmvBqE-19" value="" style="shape=datastore;whiteSpace=wrap;html=1;" vertex="1" parent="1">
          <mxGeometry x="160" y="400" width="60" height="180" as="geometry" />
        </mxCell>
        <mxCell id="-nI84mxvh85g4nLmvBqE-21" value="Backend logic&lt;br&gt;Schema&lt;br&gt;Postman&lt;br&gt;Provide URL to Africa&amp;nbsp;" style="text;html=1;strokeColor=none;fillColor=none;align=center;verticalAlign=middle;whiteSpace=wrap;rounded=0;" vertex="1" parent="1">
          <mxGeometry x="490" y="380" width="60" height="30" as="geometry" />
        </mxCell>
        <mxCell id="-nI84mxvh85g4nLmvBqE-22" value="" style="swimlane;startSize=0;" vertex="1" parent="1">
          <mxGeometry x="460" y="310" width="130" height="170" as="geometry" />
        </mxCell>
        <mxCell id="-nI84mxvh85g4nLmvBqE-25" style="edgeStyle=orthogonalEdgeStyle;rounded=0;orthogonalLoop=1;jettySize=auto;html=1;" edge="1" parent="1">
          <mxGeometry relative="1" as="geometry">
            <mxPoint x="520" y="560" as="targetPoint" />
            <mxPoint x="525" y="570" as="sourcePoint" />
          </mxGeometry>
        </mxCell>
      </root>
    </mxGraphModel>
  </diagram>
</mxfile>
